<?xml version="1.0" encoding="utf-8"?>
<!-- Svg Vector Icons : http://www.onlinewebfonts.com/icon -->
<!DOCTYPE svg PUBLIC "-//W3C//DTD SVG 1.1//EN" "http://www.w3.org/Graphics/SVG/1.1/DTD/svg11.dtd">
<svg version="1.1" xmlns="http://www.w3.org/2000/svg" xmlns:xlink="http://www.w3.org/1999/xlink" 

height="600"
width="600"
viewBox="0 0 1000 1000" 
enable-background="new 0 0 1000 1000" 
xml:space="preserve">
<metadata> Svg Vector Icons : http://www.onlinewebfonts.com/icon </metadata>
<g><path d="M941.3,619.3c20.1-34.4,6.1-88.4,0.6-106.3c24.9-60.6-23.2-216.2-44.3-268c-16.4-40-49.4-76.4-73.5-102.9c-10.7-11.8-20-22.1-23.6-28.1c-14.8-25.1-33.6-37.1-61-39c-6-0.4-6-0.6-10-8.2c-3-5.9-7.2-14-16-22.3c-10.5-10-21.7-12-34.4-10.1c-4.3,0.7-7.5,3.4-18.7-3c-26-15-40.9-21.5-75-21.5c-39.7,0-52.8,75.2-55.6,97c-7.9,34.6-7.9,146.6-8,236.6c0,34.1,0,63.3-0.5,80.2c-1.1,39.3,10.1,64.3,19.4,78.1c-22.4,23.4-28.5,79.9-26.8,99.9c1.1,13.4,5.5,21.6,8.6,27.5c3.8,7.2,5.8,10.8-0.4,27.1c-14.6,39.1-6.4,162.4-0.2,182.1c2.8,8.7,7.2,13.6,10.7,17.6c5.1,5.7,10.3,11.6,11,42.1c1.5,63.5,102.2,92,128,92c26.1,0,68.2-20.7,72-22.7c90.9-37.9,123.9-116.3,143.6-163.2c5.5-13.1,11.8-28,15.6-31.2c22.8-19.4,21.9-51.4,20.6-63.7C943.5,670.9,942.5,633,941.3,619.3z M872.9,255.1c23.4,57.2,55.5,173.7,48.7,229.9c-1.9-3.2-3.9-6.4-5.8-9.6c-11.5-18.6-23.4-37.9-28.3-70.1c-9.8-63.9-48.8-79.4-50.4-80c-5.1-1.9-10.8,0.6-12.8,5.7c-2,5.1,0.5,10.9,5.6,12.9c1.2,0.5,30,12.7,37.8,64.3c5.5,36.2,19.1,58.2,31.1,77.6c8,13,14.9,24.3,18.7,38.2c6.3,21.7,14,63.6-0.7,84.1c-16.3,11.2-57.3,27.9-119-26.3c-39.6-34.9-54.1-60.3-54.2-60.5c-2.7-4.8-8.9-6.6-13.6-3.9c-4.8,2.7-6.6,8.8-3.9,13.6c0.6,1.1,16,28.4,58.5,65.8c37.2,32.7,68.9,42.7,93.7,42.7c14.8,0,27.2-3.6,36.9-8c0,15.5-2.5,42-16.9,67.9c-33.5,8.2-166.1,23.1-271.8-210.3c0-0.1-0.1-0.2-0.1-0.2c-0.1-0.1-0.2-0.2-0.3-0.3c-0.3-0.6-0.8-1.1-1.2-1.6c-0.3-0.4-0.5-0.8-0.9-1.2c-0.1-0.1-0.3-0.2-0.4-0.3c-0.1-0.1-0.2-0.3-0.3-0.4c-0.4-0.3-0.9-0.4-1.3-0.6c-0.4-0.2-0.8-0.6-1.2-0.7c-0.2-0.1-0.3-0.1-0.5-0.1c-0.7-0.2-1.3-0.3-2-0.3c-0.4,0-0.8-0.2-1.2-0.2c-0.2,0-0.3,0.1-0.5,0.1c-0.7,0.1-1.4,0.3-2.1,0.5c-0.4,0.1-0.8-1.2-1.2-1c0,0-0.1-1.2-0.1-1.2s0,0-0.1,0c-0.1,0-0.2,1.5-0.3,1.6c-0.6,0.3-1.1,1.4-1.6,1.9c-0.4,0.3-0.9,0.9-1.2,1.2c-0.1,0.1-0.2,0.4-0.2,0.6c-0.1,0.1-0.3,0.3-0.4,0.4c-10.7,14.4-24.8,14.4-34.1,12.3l-5.8-4.9c-0.9-0.8-22.7-19.7-21.2-70.1c0.5-17,0.5-46.5,0.5-80.9c0-28.3,0-61.8,0.4-94.7c16.6-7.3,54.2-19,77.3,12.2c12.5,16.9,17.1,33,13.6,47.8c-3.6,15.4-15,26.1-23.8,30.5c-4.9,2.5-6.8,8.6-4.3,13.5c1.8,3.5,5.3,5.4,8.9,5.4c1.5,0,3.1-0.4,4.6-1.1c12.3-6.3,27-20.1,32.9-40c8.1,0.2,31.2,3.4,46.3,32.4c1.7,3.4,5.2,5.4,8.9,5.4c0.7,0,1.4-0.1,2.1-0.2c4.4-0.9,7.6-4.7,7.9-9.2c0.1-1.3,2.5-33,40.7-35.5c32.8-2.1,54.7-13.2,60.2-30.3c2.2-7,3.2-20.9-14.8-35.5c-10.2-8.2-10.4-14.2-10.6-23.2c-0.3-8.9-0.6-19.7-10.7-31.1c7.3-11.1,10.8-23.3,12.2-34.5c1.4,1.5,2.6,2.9,4.1,4.5C827.1,185.1,858.3,219.5,872.9,255.1z M585.5,36.7c28.2,0,38.2,4.4,61.7,17.9c12.4,7.1,25.4,7.9,36.1,6.2c1.8-0.3,3.5-0.6,5.2-0.6c1.1,0,2.9,0,6.6,3.6c5.5,5.2,8,10.1,10.7,15.2c1.6,3,3.4,6.4,5.8,9.6c1.9,9.7,2.9,23.4-3.3,34.2c-5.5,9.8-16.5,16.1-32.5,18.7c-5.5,0.9-9.2,6-8.3,11.5c0.8,4.9,5,8.4,9.9,8.4c0.5,0,1,0,1.6-0.1c22.4-3.6,38.2-13.2,46.9-28.7c5.7-10.2,7.4-21.5,7.2-31.7c1.5,0.2,2.9,0.5,4.6,0.7c18.4,1.3,29.6,8.6,39.8,26c0.8,1.4,2,3,3.1,4.6c1.2,12,1,33.5-11.4,49.8c-11,14.4-29.9,22.1-56.2,22.9c-5.5,0.2-9.8,2.5-9.7,8c0.2,5.4,4.6,7.4,10,7.4c0.1,0,0.2,0,0.3,0c25.8,0,46.1-5.3,60.9-17.6c3.8,5.2,4,11.2,4.2,17.7c0.3,10.2,0.7,24.8,18.1,38.8c3,2.4,9.9,9,8.3,14.1c-2.1,6.7-16.3,14.8-42.4,16.5c-28.9,1.9-44.9,17-52.8,32.1c-17.4-19.9-38.1-24-49.1-24.7c-0.4-13.2-4.8-29.5-18.5-48.1c-25.6-34.6-65.5-31.9-93.1-22c0.3-15.8,0.6-31.1,1.1-45.3c5.4-14.2,17.7-38.7,39.2-43c5.4-1.1,8.9-6.4,7.8-11.8c-1.1-5.4-6.3-9-11.8-7.8c-13.8,2.8-24.6,10.5-33,19.8c0.9-11.7,2.1-21.1,3.5-27.3C561.3,73.2,575.6,36.7,585.5,36.7z M732.6,943.1c-10.3,5.2-27,12.3-41.4,16.5c17.5-21.8,27.6-52.4,30.9-63.5c40.7-26.3,53.2-76,53.4-76.7c1.3-5.4-2.1-10.8-7.4-12.1c-5.5-1.3-10.8,3.6-12.1,8.9c-0.2,0.8-19.3,78.9-89.5,78.9h0c-5.5,0-10,5.4-10,10.9c0,5.5,4.5,10.9,10,10.9h0c11.2,0,21.3-4,30.4-6.7c-8,20.3-21.3,44.8-37.7,52c-0.4,0.2-0.9-0.3-1.3-0.2c-30.2-6.4-86.6-29.7-87.4-64.4c-0.9-37.3-8.6-49-17.8-59.3c-2.7-3-4.1-4.7-5.2-8c-4.9-15.4-12.5-131.8-0.2-164.7c9.6-25.5,5.4-36.9-1.1-49c-2.6-4.9-4.9-9.2-5.6-17.1c-2.4-29.9,12.7-79.6,22.3-81.3l3.1-0.5c5.3,1.6,11.4,2.8,17.9,2.8c9.9,0,20.6-2.7,30.3-10c17.5,39.4,47.3,114.8,42.4,143.2c-3.2,18.2-17.8,30.2-32,41.9c-14.9,12.2-30.3,24.9-31.6,44.7c-1.1,16.6,7.9,34.5,28.5,56.6c17,18.3,14.8,33.1,7.8,40.2c-3.5,3.5-8.6,5.7-14.4,5.4c-10.9-3.5-18.4-8.6-18.5-8.7c-0.4-0.3-0.8-0.3-1.3-0.6c-0.6-0.3-1.2-0.6-1.8-0.8c-0.6-0.2-1.2-0.2-1.9-0.3c-0.7-0.1-1.3-0.1-1.9-0.1c-0.7,0.1-1.2,0.2-1.8,0.4c-0.6,0.2-1.2,0.4-1.8,0.7c-0.6,0.3-1,0.7-1.6,1.1c-0.4,0.3-0.8,0.5-1.2,0.9c-0.2,0.2-0.2,0.4-0.3,0.6c-0.1,0.1-0.3,0.2-0.3,0.3c-0.2,0.3-0.3,0.7-0.5,1.1c-0.4,0.7-0.7,1.4-0.9,2.1c-0.2,0.5-0.2,1.1-0.2,1.6c-0.1,0.7-0.2,1.4-0.1,2.1c0.1,0.6,0.2,1.1,0.4,1.6c0.2,0.7,0.4,1.3,0.7,2c0.3,0.6,0.7,1,1.1,1.5c0.3,0.4,0.5,0.9,0.9,1.2c0.3,0.2,0.5,0.4,0.8,0.6c0,0,0.1,0.1,0.1,0.1c0,0,0.3,0.2,0.4,0.3c8.4,7.3,17.3,10.9,25.8,11.9c6.7,2,14.3,3.4,22.6,3.4c8.1,0,16.7-1.4,25.5-4.8c34.4-13.6,58.6-54.7,71.7-122.1c1-5.4-2.5-10.7-7.9-11.7c-5.3-1.1-10.7,2.5-11.7,7.9c-11.6,59.3-32,96.4-59.2,107.3c-0.8,0.3-1.5,0.5-2.2,0.7c8.5-15.2,7.3-37.4-13.5-59.7C620,766,612.2,752,612.9,741.6c0.7-11.2,11.7-20.2,24.4-30.6c16.2-13.3,34.5-28.4,39-53.9c2.2-12.8-0.7-31.6-6-51.9c73.4,98.8,150.7,117.1,197.8,117.1c11.9,0,21.7-1.2,29.2-2.5c0.1,9.9-1.8,24.3-11.8,32.7c-1.1,0.9-2.1,1.9-3.1,3.1c-11.2,5.5-30.4,11.1-58.3,5.6c-5.6-1.1-10.7,2.5-11.8,7.9c-1.1,5.4,2.5,10.7,7.9,11.7c9.4,1.8,18,2.6,25.9,2.6c8.2,0,15.3-1,21.8-2.3c-1.7,3.9-3.5,8.1-5.4,12.6C843.3,839.7,814.2,909,732.6,943.1z"/><path d="M774,410.4c4.6-15.5-1.5-26.5-1.9-27.1c-2.7-4.7-8.5-6.3-13.3-3.7c-4.8,2.5-6.6,8.6-4.1,13.4c0.2,0.5,5.4,11.4-9.5,27c-6.7,7-11.4,12.7-15.2,17.4c-7.6,9.4-9.2,11.4-17.4,12.1c-9.7,0.8-26.5-10.4-51.6-33c-4.1-3.7-10.4-3.4-14.1,0.7c-3.7,4.1-3.4,10.4,0.7,14.1c21,19,45,38.2,64.4,38.2c0.8,0,1.6,0,2.4-0.1c16.6-1.4,22.7-9,31.2-19.4c3.5-4.3,7.8-9.6,14-16.1c1.7-1.8,3.3-3.6,4.7-5.3c11.9,2.7,40.6,13.8,50.4,57.8c1,4.7,5.2,7.8,9.8,7.8c0.7,0,1.4-0.1,2.2-0.2c5.4-1.2,8.8-6.5,7.6-11.9C824,436.9,795.3,417.1,774,410.4z"/><path d="M478.6,423.8c-0.5-16.8-0.5-46-0.5-80.2c0-90,0-202-7.7-235.4c-3.1-23-16.2-98.2-55.9-98.2c-34.2,0-49.1,6.5-75,21.5c-11.2,6.4-14.4,3.7-18.7,3c-12.7-1.9-23.9,0.1-34.4,10.1c-8.7,8.3-12.9,16.4-16,22.3c-4,7.7-4.1,7.8-10,8.2c-27.3,1.9-46.2,14-61,39c-3.5,6-12.8,16.2-23.6,28.1c-24.1,26.6-57.1,63-73.5,102.9c-21.2,51.7-69.2,207.3-44.3,268c-5.6,17.9-19.6,71.9,0.5,106.3c-1.2,13.7-2.1,51.6,18,89.9c-1.3,12.4-2.2,44.4,20.6,63.7c3.8,3.2,10.1,18.1,15.6,31.2c19.7,46.9,52.7,125.3,142.7,162.8c4.7,2.4,46.8,23.1,72.9,23.1c25.8,0,126.4-28.5,128-92c0.7-30.5,6-36.4,11-42.1c3.5-3.9,7.9-8.8,10.7-17.6c6.2-19.7,14.4-142.9-0.2-182.1c-6.1-16.3-4.2-19.9-0.4-27.1c3.2-5.9,7.5-14.1,8.6-27.5c1.6-20-4.5-76.5-26.8-99.9C468.5,488,479.7,463.1,478.6,423.8z M262.3,101.6c1.7-0.1,3.1-0.4,4.6-0.7c-0.2,10.2,1.4,21.5,7.2,31.7c8.7,15.5,24.5,25.1,46.9,28.7c0.5,0.1,1.1,0.1,1.6,0.1c4.8,0,9.1-3.5,9.9-8.4c0.9-5.5-2.8-10.6-8.3-11.5c-16-2.6-27-8.8-32.5-18.7c-6.1-10.9-5.2-24.5-3.3-34.2c2.4-3.2,4.3-6.6,5.8-9.6c2.7-5.1,5.2-10,10.7-15.2c3.8-3.6,5.5-3.6,6.7-3.6c1.7,0,3.4,0.3,5.2,0.6c10.7,1.7,23.6,0.9,36.1-6.3c23.5-13.5,33.5-17.9,61.7-17.9c9.9,0,24.2,36.5,29.6,76.3c1.4,5.9,2.5,15,3.4,26.2c-8.4-9.4-19.3-17.2-33.1-19.9c-5.4-1.1-10.7,2.4-11.8,7.8c-1.1,5.4,2.4,10.7,7.8,11.8c21.6,4.4,33.9,29,39.3,43.2c0.5,14.1,0.8,29.3,1.1,45.1c-27.6-9.8-67.5-12.6-93.1,22c-13.7,18.5-18.1,35-18.5,48.1c-11,0.7-31.7,4.9-49.1,24.7c-7.9-15.1-23.8-30.1-52.8-32c-26.1-1.7-40.3-9.7-42.4-16.4c-1.6-5.2,5.2-11.4,8.3-13.9c17.4-14,17.8-28,18.1-38.2c0.2-6.5,0.3-13.6,4.2-18.9c14.8,12.4,35.1,17.6,60.9,17.6c0.1,0,0.2,0,0.3,0c5.4,0,9.8-2,10-7.4c0.2-5.5-4.2-9-9.7-9.2c-26.2-0.8-45.1-7.9-56.1-22.3c-12.5-16.3-12.6-37.7-11.5-49.7c1.1-1.6,2.3-3,3.1-4.4C232.7,110.1,243.9,102.9,262.3,101.6z M127.1,255.1c14.6-35.6,45.7-70,68.5-95.1c1.4-1.6,2.7-3,4.1-4.5c1.4,11.1,4.9,23.3,12.2,34.5c-10.1,11.4-10.4,22.2-10.7,31.1c-0.3,9-0.4,15-10.6,23.2c-18.1,14.5-17,28.5-14.8,35.5c5.4,17.1,27.3,28.1,60.2,30.3c37.1,2.4,40.4,32.2,40.7,35.5c0.3,4.5,3.5,8.2,7.9,9.2c0.7,0.2,1.4,0.2,2.1,0.2c3.7,0,7.1-2,8.9-5.4c15-28.9,38.1-32.2,46.3-32.4c6,19.9,20.6,33.7,33,40c1.5,0.8,3,1.1,4.6,1.1c3.6,0,7.1-2,8.9-5.4c2.5-4.9,0.6-10.9-4.3-13.5c-8.7-4.5-20.2-15.2-23.8-30.5c-3.5-14.8,1.1-30.9,13.6-47.8c23.2-31.3,60.8-19.5,77.3-12.2c0.3,32.8,0.3,66.3,0.3,94.7c0,34.5,0,64,0.5,81c1.5,50.4-20.3,69.3-21,70l-6.3,5.1c-9.3,2.1-23.2,1.9-33.8-12.3c-0.1-0.1-0.2-0.2-0.3-0.3c-0.1-0.1-0.2-0.3-0.3-0.4c-0.3-0.4-0.8-0.6-1.2-0.9c-0.5-0.4-1-2.2-1.6-2.5c-0.1-0.1-0.2-1.6-0.3-1.6c0,0,0,0,0,0c0,0,0,1.3-0.1,1.3c-0.4-0.2-0.8,0.5-1.3,0.4c-0.7-0.2-1.3-0.1-2-0.1c-0.2,0-0.3,0.1-0.5,0.1c-0.5,0-0.9,0.2-1.4,0.3c-0.6,0.1-1.3,0.2-1.9,0.3c-0.2,0.1-0.3,0.1-0.5,0.1c-0.5,0.2-0.9,0.5-1.3,0.8c-0.4,0.2-0.9,0.3-1.3,0.6c-0.1,0.1-0.2,0.3-0.3,0.4c-0.1,0.1-0.3,0.2-0.4,0.3c-0.4,0.3-0.6,0.8-0.9,1.2c-0.4,0.5-0.9,1-1.2,1.6c-0.1,0.1-0.2,0.2-0.3,0.3c0,0,0,0.1,0,0.1c0,0,0,0,0,0C267.9,722.7,135.3,707.8,101.8,699.6c-14.4-25.9-16.9-52.4-16.9-67.9c9.7,4.4,22,8,36.9,8c24.9,0,56.6-10,93.7-42.7c42.5-37.4,57.8-64.6,58.5-65.8c2.7-4.8,0.9-10.9-3.9-13.6c-4.8-2.7-10.9-0.9-13.6,3.9c-0.1,0.2-14.6,25.6-54.2,60.5c-61.6,54.2-102.7,37.6-119,26.3l0,0c-14.8-20.7-6.7-63.3-0.4-84.9c3.9-13.6,10.6-24.8,18.5-37.5c12-19.4,25.5-41.4,31.1-77.6c7.8-51.4,36.4-63.7,37.8-64.3c5.1-2,7.7-7.7,5.7-12.9c-2-5.2-7.8-7.8-12.9-5.8c-1.7,0.6-40.7,16.1-50.4,80c-4.9,32.2-16.8,51.5-28.3,70.1c-2,3.2-4,6.4-5.9,9.6C71.6,428.9,103.7,312.3,127.1,255.1z M459.4,599.5c-0.7,7.9-2.9,12.2-5.5,17.2c-6.5,12.1-10.6,23.4-1.1,48.9c12.3,32.8,4.7,149.2-0.2,164.6c-1.1,3.3-2.5,5-5.2,7.9c-9.2,10.3-16.9,21.9-17.8,59.2c-0.8,34.7-57.3,57.6-87.4,64.1c-0.4-0.2-0.9-0.2-1.3-0.4c-16.5-7.3-29.7-32.9-37.7-53.3c9.1,2.7,19.2,4.3,30.4,4.3c4.6-0.2,10-2.9,10-8.5c0-5.5-4.5-8.5-10-8.5c0,0,0,0,0,0c-16.7,0-30.5-5.8-41.8-12.3c-0.2-0.1-0.3-0.9-0.5-1c-35.7-20.8-46.7-64.3-47.3-66.7c-1.3-5.4-6.7-8.9-12.1-7.6c-5.4,1.3-8.7,6.6-7.4,11.9c0.2,0.7,12.7,50.4,53.4,76.7c3.3,11.2,13.4,41.8,30.9,63.5c-16-4.7-34-12.8-42.3-17c-80.8-33.7-110-103-129.2-148.9c-1.9-4.5-3.6-8.7-5.4-12.6c6.6,1.3,13.7,2.3,21.8,2.3c7.9,0,16.5-0.8,25.9-2.6c5.4-1.1,9-6.3,7.9-11.7c-1.1-5.4-6.5-9-11.7-7.9c-28,5.5-47.2-0.1-58.3-5.6c-1-1.1-2-2.1-3.1-3.1c-10-8.5-11.8-22.9-11.8-32.7c7.5,1.3,17.3,2.5,29.2,2.5c47.2,0,124.5-18.4,197.9-117.1c-5.3,20.3-8.2,39-6,51.9c4.4,25.5,22.8,40.6,39,53.9c12.7,10.4,23.6,19.4,24.4,30.6c0.7,10.4-7.1,24.4-23.2,41.6c-20.8,22.4-22,44.6-13.5,59.7c-0.7-0.3-1.5-0.4-2.2-0.7c-27.2-10.9-47.7-47.9-59.2-107.3c-1.1-5.5-6.4-9.1-11.7-7.9c-5.4,1.1-9,6.3-7.9,11.7c13.1,67.4,37.2,108.5,71.7,122.1c8.8,3.5,17.5,4.8,25.5,4.8c8.3,0,15.9-1.5,22.6-3.4c8.6-1,17.5-4.7,25.9-11.9c0.1-0.1,0.3-0.2,0.4-0.2c0,0,0.1-0.1,0.1-0.1c0.3-0.2,0.5-0.4,0.8-0.6c0.4-0.3,0.6-0.8,0.9-1.2c0.4-0.5,0.8-1,1.1-1.5c0.3-0.6,0.5-1.2,0.7-1.8c0.2-0.6,0.4-1.2,0.4-1.8c0.1-0.7,0-1.3-0.1-1.9c-0.1-0.6-0.1-1.2-0.3-1.8c-0.2-0.7-0.5-1.3-0.8-1.9c-0.2-0.4-0.3-0.8-0.6-1.2c-0.1-0.2-0.3-0.2-0.4-0.4c-0.1-0.2-0.2-0.4-0.3-0.5c-0.3-0.4-0.8-0.6-1.2-0.9c-0.5-0.4-0.9-0.8-1.5-1.1c-0.6-0.3-1.2-0.5-1.9-0.7c-0.6-0.2-1.1-0.3-1.7-0.4c-0.7-0.1-1.3,0-2,0.1c-0.6,0.1-1.2,0.1-1.8,0.3c-0.7,0.2-1.3,0.5-1.9,0.8c-0.4,0.2-0.9,0.3-1.3,0.6c-0.1,0.1-7.5,5.2-18.4,8.7c-5.9,0.2-11-2-14.5-5.4c-7.1-7.1-9.3-21.9,7.8-40.2c20.5-22.1,29.6-40.1,28.5-56.6c-1.3-19.8-16.7-32.5-31.6-44.7c-14.2-11.7-28.8-23.7-32-41.9c-4.9-28.3,24.9-103.8,42.4-143.2c9.7,7.3,20.4,10,30.3,10c6.6,0,12.7-1.2,18.1-2.9l3,0.5C446.7,519.9,461.9,569.6,459.4,599.5z"/><path d="M173.6,494c0.7,0.2,1.5,0.2,2.2,0.2c4.6,0,8.7-3.2,9.8-7.8c9.8-44,38.5-55.1,50.4-57.8c1.4,1.8,2.9,3.5,4.7,5.3c6.2,6.5,10.5,11.8,14,16.1c8.5,10.4,14.6,18,31.2,19.4c0.8,0.1,1.6,0.1,2.4,0.1c19.4,0,43.3-19.2,64.4-38.2c4.1-3.7,4.4-10,0.7-14.1c-3.7-4.1-10-4.4-14.1-0.7c-25.1,22.7-42.5,33.8-51.6,33c-8.2-0.7-9.7-2.7-17.4-12.1c-3.8-4.7-8.4-10.4-15.2-17.4c-14.7-15.3-9.9-26.1-9.5-27c2.6-4.8,0.9-10.8-3.8-13.5c-4.8-2.7-10.9-1.1-13.7,3.7c-0.4,0.7-6.5,11.6-1.9,27.1c-21.3,6.6-50.1,26.5-60.1,71.6C164.7,487.5,168.2,492.8,173.6,494z"/></g>
</svg>